<svg xmlns="http://www.w3.org/2000/svg" viewBox="0 0 800 800"><defs><style>.cls-1{fill:#69b28c;}.cls-2{fill:#fff;}.cls-2,.cls-7{stroke:#000;}.cls-2,.cls-7,.cls-8{stroke-miterlimit:10;}.cls-3{fill:#b5b5b5;}.cls-4{fill:#d8d6d6;}.cls-5{fill:#565656;}.cls-6{fill:#424242;}.cls-7,.cls-8{fill:none;}.cls-8{stroke:#fff;}</style></defs><title>Sandy</title><g id="Layer_3" data-name="Layer 3"><circle class="cls-1" cx="400" cy="400" r="400"/></g><g id="Layer_2" data-name="Layer 2"><path id="Hair" d="M263.78,491.46s-6.81-4.12-8.51-23.68l-2.72,3.6s-8.34-47.83-8.52-58.22l-2,6.47s-6.47-8.85-9.19-4.08c0,0-7.15-60.26-6.47-73.19h-3.06s-2.38-17.71,0-28.94h2.38s.34-16.68-.68-18-5.18-15-2.76-20.77,7.19-11.23,7.87-14.64,5.1-8.17.34-8.51-3.75-9.53-.34-10.89,5.78-5.79,5.78-5.79-9.19-4.08-5.44-6.81,12.2-16,12.2-16,5.84-.68,5.5-3.06S244,199,247.44,198.7s7.49.68,8.17-4.43-4.09-19.06-1.36-21.45,5.78,0,5.78,0-2-6.12,3.75-7.48,14.39,3.06,17.58,2.38-2.7-10.56-2.82-14,15.2,6.47,18.26,6.47,8.85,5.79,15-2.72,23.83-19.41,28.94-19.41,25.87.34,41.53,9.87,60.59,2.73,67.4,5.45,22.81,9.19,25.53,14,9.05,2.38,14.57,5.1S512.29,184.4,513,190.87s5.79,8.17,9.87,7.15,40.51,42.55,39.15,55.14,3.07,7.49,5.45,14.3,9.53,18.73,8.17,35.07-8.85,73.19-8.51,81.36,1,24.85,1,24.85-2.72-16.69-5.79-9.71-3.17,31.84-3.46,36.6,0,27.94-4.71,32.15-3.91-39.3-3.91-39.3L518.76,330.1s-208,14-209.36,15.66S273,383.89,273,383.89l-9.19,67.74s3.4,32,3.74,33.36S263.78,491.46,263.78,491.46Z" transform="translate(0 -0.77)"/><path id="face" class="cls-2" d="M545,381.16s2.72-12.25,0-17-12.59-12.59-13.62-26.21,2.73-43.23-5.78-48-23.49-18.72-23.49-18.72l5.1-2.39s-16-14.63-16-19.4l1.71-3.74s-5.11-4.09-7.49-3.41-9.19,5.11-12.6,4.09l1.7-2.73s-11.23,1.36-16.68,1.71l4.77-5.79s-9.19,3.4-11.92,3.4l1.71-3.4s.34-4.09-3.41-4.43-13.55-3.06-30.27-1.36-38.84,3.75-51.77,12.26-23.83,19.06-31.32,20.76S321,279,316.21,278s-11.58-13.62-24.86-2-12.16,67.75-10,72.85-15.54,12.94-15.2,21.79-2.72,37.45-5.1,42.55S257,447.89,259,455.72s10.56,62.3,15.32,81,18.39,47.32,30,57.87,44.6,37.79,58.89,44.26,35.41,9.19,51.41,9.53,46.3-2.72,63.32-19.41,49-50.29,54.47-68.37,12.93-57.58,16-79.37,3.4-55.1,3.4-55.1S546,387.29,545,381.16Z" transform="translate(0 -0.77)"/><path id="r_brow" data-name="r brow" d="M393.74,382.1c-3.94-4.94-28.85-20.42-40.6-21.19s-26.32-2.3-31,0S280,393.12,281.4,398.19s27.84-14.16,37.53-15.3c4.78-.57,21.12-1.94,31-.37,19.39,3.08,42,8.76,43.79,9.28C396.29,392.57,397.08,386.29,393.74,382.1Z" transform="translate(0 -0.77)"/><path id="l_brow" data-name="l brow" d="M436.89,383.89c2.29-6.64,22-21.8,33.7-24.19,4.59-.95,28.85-1.73,31.4,0s31.15,17.69,32.17,19.67,8.17,10.9,4.09,9.62-29.87-10.72-38.81-11-20.94.14-24.77,1.35-14.55,8.6-19.91,9.75-13.76,5.22-16.85,2.94S436.89,383.89,436.89,383.89Z" transform="translate(0 -0.77)"/><path class="cls-3" d="M543.61,390l3.06,9s0,39.11-3.06,41.78c0,0-7.78,15.81-12.77,15.33,0,0-11.23,3.32-12.51,3.58s-41.36,1.1-41.36,1.1l-19.91-3.66s-11.5-9.44-16.22-23.48S431,397.16,431,397.16l5.2-4.42L451.69,389s29.88-3.83,37.15-3.83,53.23,2.56,53.23,2.56Z" transform="translate(0 -0.77)"/><path class="cls-3" d="M402.42,397.16c1.06,3,2.52,18.64,2.52,18.64S394.5,455.12,384.29,459s-23,7.15-23,7.15H325.57s-22.22-4.85-25.28-9.7-8.17-15.59-8.17-15.59l-3.46-43.65,24.14-5.61L338.66,390h39.5Z" transform="translate(0 -0.77)"/><polygon class="cls-4" points="489.66 384.25 478.87 460.06 504.4 460.06 517.93 385.25 489.66 384.25"/><polygon class="cls-4" points="338.66 389.25 327.87 464.06 353.4 464.06 366.93 389.25 338.66 389.25"/><polygon class="cls-5" points="239.78 392.82 285.74 392.82 287.78 406.1 243.87 402.02 239.78 399.46 239.78 392.82"/><path class="cls-6" d="M282.12,393.61c3.58-1.51,39.87-5.64,59.79-6.15S403.69,391.55,420,391s52.09-7.15,74.56-7.15,61.79,2.55,61.79,2.55,5.61,1.53,0,8.17-10.22,8.17-10.22,8.17,0-7.66-11.23-11.74-71.49-10.73-96.51,7.15l-8.68,9.7s-2.61-3.07-10.24-3.07a12.22,12.22,0,0,0-10.7,5.62h-5.62s.51-8.68-4.59-13.28-25-5.61-55.66-5.61-47,4.08-49.51,13.79l-5.64,1.53s-3.09-3.58-6.66-4.09S277.5,395.57,282.12,393.61Z" transform="translate(0 -0.77)"/><path class="cls-6" d="M285.74,400.23l2.55,19.4s-2,34.22,14.32,41.36,20.91,7,43.38,6.64c31.16-.55,41.87,1.94,54.64-33.5s10.66-37,10.66-37h-7.6a171.1,171.1,0,0,1-2.55,20.43c-2,10.72-9.7,41.87-28.08,43.92S323,463,323,463s-16.83-1-23.46-10.73-6.17-55.15-6.17-55.15Z" transform="translate(0 -0.77)"/><path class="cls-6" d="M425.25,397.16s7.09,14.7,9.06,24.56c3.07,15.32,16.36,36.21,26.07,39.27,13.71,4.33,48.51,1.54,59.23,0s22-4.59,26-20.93,4.6-51.07,4.6-51.07h-4.6l-1,29.62s-1,18.6-4.08,24.87-13.79,17-41.37,16-40.34,0-46.46-8.68-20.43-30.64-14.81-57.19Z" transform="translate(0 -0.77)"/><path d="M367,473.78a64.38,64.38,0,0,1-5.58,9.74c-2.11,3.09-4.34,6.1-6.64,9.06a221.73,221.73,0,0,1-14.71,17c-1.3,1.35-2.64,2.68-4,3.95s-2.8,2.49-4.14,3.78a28.25,28.25,0,0,0-6.73,8.64,30.65,30.65,0,0,0-2.58,10.69c-.13,1.85-.22,3.71-.18,5.58s.1,3.73.16,5.6h-.1a70.27,70.27,0,0,1-.57-11.24,30.32,30.32,0,0,1,2.37-11.06,27.33,27.33,0,0,1,6.95-9c1.39-1.27,2.83-2.47,4.22-3.71s2.73-2.53,4.05-3.85a219,219,0,0,0,14.89-16.73c2.34-2.91,4.62-5.87,6.78-8.92a64.38,64.38,0,0,0,5.74-9.61Z" transform="translate(0 -0.77)"/><path id="mustache" d="M415.46,522.78c-4.08,6.64-48.53,4.09-56.7,19.41s-13.28,18.89-17.36,18.38-9.08-15.32,3.12-28.6,53.05-29.1,60.2-29.1,11.83,4.25,14.34,4.08,6.62-5.72,11.19-5.13c19.82,2.59,53.13,18.41,59.5,26.58s6.88,27.2,2.8,30.22-10.75-22-35.26-29.91c-12.26-4-22.93-4.74-27.89-6.1-1.77-.48-4-3.4-7.83-3.15A9.68,9.68,0,0,0,415.46,522.78Z" transform="translate(0 -0.77)"/><g id="R_ear" data-name="R ear"><path class="cls-2" d="M244.36,417.73c-5-8.84-17.47-14.69-22.9-.91s-6.06,42.94,0,51,1.47,17.13,7.6,23.68S234.42,510.27,236,521s19,19.92,22.15,18.39,15.18-6.21,13.25-16.27-6.18-45.06-16.08-55.33-7-35.31-7-35.31A29.17,29.17,0,0,0,244.36,417.73Z" transform="translate(0 -0.77)"/><path d="M229.89,420.14c-4.8-.91-7.15,6.62-6.64,20.67a175.2,175.2,0,0,0,3.29,27s9.13-32.49,9-37.25S233.46,420.82,229.89,420.14Z" transform="translate(0 -0.77)"/><path d="M246.42,453c-2.24-.88-9.53-.85-11.07,6.13s-3.4,20.94,2.73,27.24,15.15,11.4,16.51,12.08-9.53-19.23-8.17-22.72,6.13-4.34,6.13-4.34S256,456.74,246.42,453Z" transform="translate(0 -0.77)"/><path class="cls-7" d="M233.83,490.78s6.46,9.19,9.52,10.21" transform="translate(0 -0.77)"/></g><g id="L_ear" data-name="L ear"><path class="cls-2" d="M556.38,439.29s-1-42.89,10.46-42.13,12.52,34,8.94,51.32-4.34,43.15-6.89,46.73,3.32,20.68-6.13,26.55-21.1,12.89-20.68,3.58,10.47-54.34,9.7-57.56,5.36-14.7,5.87-21.59S556.38,439.29,556.38,439.29Z" transform="translate(0 -0.77)"/><path d="M568.63,406.1c-7.3,0-11.2,6.89-8.79,12.26s10.83,26,10.58,28.59,2,.77,2.3-2S573.23,406.1,568.63,406.1Z" transform="translate(0 -0.77)"/><path d="M564.55,448.18c-2,6.69-9.2,15.62-8.94,18.43s-.37,8.94,3.26,6.13,6.76-7,7.11-11.92S564.55,448.18,564.55,448.18Z" transform="translate(0 -0.77)"/><path d="M568.12,473.46c-.51,2.34-7.31,14.48-7.31,14.48" transform="translate(0 -0.77)"/></g><g id="nose"><path class="cls-7" d="M373.31,471.21c-2,3.06-5.87,16.57,0,19.13s10.21-.47,16.09-2.4,15.06.29,19.15,3.52,16.08,2.13,18.38,0,10.72-5.44,14.55-4.93,10.21,5.27,14,4.93,16.09-4.66,9.45-20.25" transform="translate(0 -0.77)"/><path d="M380,491.46c3.58.69,23.83,2,26.9.85s-4.38-5.47-11-5.51A29.75,29.75,0,0,0,380,491.46Z" transform="translate(0 -0.77)"/><path d="M429.06,492.75c5.78,0,20.42,1.16,24.17,0s-8.41-5.58-10.47-5.81c-6.55-.71-9.21,2-12,2.84C425.25,491.46,429.06,492.75,429.06,492.75Z" transform="translate(0 -0.77)"/></g><g id="Mouth"><path d="M372.18,544.91s16.88,13.28,46.52,13.28,48.08-15,48.08-15a312.8,312.8,0,0,0-48.08-3.66A242.5,242.5,0,0,0,372.18,544.91Z" transform="translate(0 -0.77)"/><path d="M421.38,529.87c-3.75-1-9.37-1.79-17.74,1s-40.46,14-40.46,14l108.6-1.7s-29.94-12.34-37.87-13.83A32.86,32.86,0,0,0,421.38,529.87Z" transform="translate(0 -0.77)"/></g><path class="cls-8" d="M363.25,544.87s45.81-5,57.68-4.47,50.68,3.06,50.68,3.06" transform="translate(0 -0.77)"/></g></svg>