<?xml version="1.0" encoding="utf-8"?>
<!-- Generator: Adobe Illustrator 23.0.1, SVG Export Plug-In . SVG Version: 6.00 Build 0)  -->
<svg version="1.1" id="Capa_1" xmlns="http://www.w3.org/2000/svg" xmlns:xlink="http://www.w3.org/1999/xlink" x="0px" y="0px"
	 viewBox="0 0 478.6 478.6" style="enable-background:new 0 0 478.6 478.6;" xml:space="preserve">
<style type="text/css">
	.st0{fill:#FFFFFF;}
</style>
<g id="XMLID_122_">
	<g>
		<path class="st0" d="M293.2,468.5c-0.1-7,0.3-42.1,0.3-72.6c0-30.5-4.1-41.7-18.4-50.8c41.4-4.2,84.4-22.7,92-71.3
			c1.3-7.9,2-16.7,2.3-26.4c-0.1-41.8-20.1-56.6-23.9-63.5c5.6-31.7-0.9-46.1-4-51c-11.4-4-39.5,10.4-54.8,20.5
			c-25.1-7.3-78-6.6-97.8,1.9c-36.6-26.3-56-22.2-56-22.2s-12.5,22.4-3.3,55.3c-12.1,15.4-21,26.2-21,55c0,6.9,0.4,13.4,1.1,19.7
			c10.4,54.6,53.6,78.1,96.1,82.2c-6.4,4.9-14,14-15.1,24.7c-8,5.2-24.2,6.9-36.8,3c-17.6-5.6-24.4-40.4-50.7-35.4
			c-5.7,1.1-4.6,4.8,0.4,8c8,5.2,15.6,11.7,21.5,25.6c4.4,10.7,13.9,29.6,43.7,29.6c11.8,0,20.1-1.4,20.1-1.4s0.2,57.1,0.2,67.7"/>
	</g>
</g>
</svg>
