<?xml version="1.0" encoding="utf-8"?>
<!-- Generator: Adobe Illustrator 23.0.1, SVG Export Plug-In . SVG Version: 6.00 Build 0)  -->
<svg version="1.1" id="Layer_1" xmlns="http://www.w3.org/2000/svg" xmlns:xlink="http://www.w3.org/1999/xlink" x="0px" y="0px"
	 viewBox="0 0 29.2 29.2" style="enable-background:new 0 0 29.2 29.2;" xml:space="preserve">
<style type="text/css">
	.st0{fill:#FFFFFF;}
</style>
<title>linkedin</title>
<path class="st0" d="M8.5,11.9h2.8V21H8.5V11.9z M9.9,7.4c0.9,0,1.6,0.7,1.6,1.7c0,0.9-0.7,1.6-1.7,1.6C9,10.7,8.3,9.9,8.3,9
	c0,0,0,0,0,0C8.3,8.1,9,7.4,9.9,7.4"/>
<path class="st0" d="M13.1,11.9h2.7v1.2l0,0c0.6-0.9,1.6-1.5,2.7-1.5c2.9,0,3.4,1.9,3.4,4.3v5h-2.8v-4.4c0-1.1,0-2.4-1.5-2.4
	s-1.7,1.1-1.7,2.3V21h-2.8V11.9z"/>
</svg>
